<?xml version="1.0" standalone="no"?>
<!DOCTYPE svg PUBLIC "-//W3C//DTD SVG 20010904//EN"
 "http://www.w3.org/TR/2001/REC-SVG-20010904/DTD/svg10.dtd">
<svg version="1.0" xmlns="http://www.w3.org/2000/svg"
 width="270.000000pt" height="270.000000pt" viewBox="0 0 270.000000 270.000000"
 preserveAspectRatio="xMidYMid meet">
<metadata>
Created by potrace 1.11, written by Peter Selinger 2001-2013
</metadata>
<g transform="translate(0.000000,270.000000) scale(0.100000,-0.100000)"
fill="#000000" stroke="none">
<path d="M502 2394 c-53 -26 -98 -75 -120 -131 -10 -24 -113 -551 -128 -653
-3 -19 -7 -42 -9 -50 -4 -13 -20 -95 -51 -260 -4 -20 -47 -251 -68 -360 -2
-14 -21 -110 -41 -215 -41 -213 -41 -261 0 -331 60 -102 189 -147 295 -102
104 44 132 99 176 348 3 14 11 59 19 100 8 41 17 89 20 105 13 71 35 187 54
285 28 146 29 152 35 176 7 34 18 98 19 112 0 7 4 9 8 5 4 -4 108 -208 232
-453 123 -245 230 -455 238 -468 8 -13 36 -37 63 -55 45 -28 58 -32 125 -32
65 0 82 4 116 26 22 15 50 37 61 50 12 13 120 221 240 461 120 240 220 435
222 433 4 -3 32 -138 47 -223 2 -15 23 -124 45 -242 23 -118 43 -226 46 -240
2 -14 7 -36 9 -50 7 -34 13 -65 25 -129 25 -136 104 -215 223 -225 145 -12
270 120 253 267 -3 29 -19 120 -35 202 -16 83 -34 177 -40 210 -6 33 -13 71
-16 85 -35 184 -70 366 -95 500 -17 91 -35 185 -40 210 -6 25 -12 61 -15 80
-3 19 -10 55 -15 80 -5 25 -12 56 -14 70 -3 14 -9 50 -15 80 -6 30 -13 78 -15
107 -6 63 -36 128 -81 176 -46 48 -87 68 -155 74 -115 11 -227 -78 -250 -196
-6 -34 -91 -214 -250 -529 -132 -262 -244 -480 -248 -484 -4 -4 -131 238 -282
538 -151 300 -286 562 -301 583 -38 50 -101 82 -174 87 -50 4 -69 0 -113 -22z"/>
</g>
</svg>
